<?xml version="1.0" encoding="utf-8"?>
<!-- Generator: Adobe Illustrator 17.1.0, SVG Export Plug-In . SVG Version: 6.00 Build 0)  -->
<!DOCTYPE svg PUBLIC "-//W3C//DTD SVG 1.1//EN" "http://www.w3.org/Graphics/SVG/1.1/DTD/svg11.dtd">
<svg version="1.1" id="Layer_1" xmlns="http://www.w3.org/2000/svg" xmlns:xlink="http://www.w3.org/1999/xlink" x="0px" y="0px"
	 viewBox="0 0 434.006 243.153" enable-background="new 0 0 434.006 243.153" xml:space="preserve">
<g>
	<circle fill="none" stroke="#000000" stroke-width="16.4516" stroke-miterlimit="10" cx="112.209" cy="163.101" r="71.565"/>
	<circle fill="none" stroke="#000000" stroke-width="16.4516" stroke-miterlimit="10" cx="354.216" cy="163.362" r="71.565"/>
	<circle stroke="#000000" stroke-miterlimit="10" cx="114.295" cy="162.846" r="8.697"/>
	<path fill="none" stroke="#000000" stroke-width="12" stroke-miterlimit="10" d="M114.295,162.846
		c0,0,38.369-32.725,56.275-116.642l4.604-13.301l-8.185-7.674l10.743-12.79h26.603"/>
	<polygon fill="none" stroke="#000000" stroke-width="12" stroke-miterlimit="10" points="165.481,66.901 282.651,66.901 
		354.216,163.362 248.842,181.263 161.306,80.63 	"/>
	<line fill="none" stroke="#000000" stroke-width="12" stroke-miterlimit="10" x1="286.7" y1="52.855" x2="246.796" y2="181.263"/>
	<path d="M251.912,41.088h65.995C317.907,41.088,289.769,73.83,251.912,41.088z"/>
	<circle cx="357.078" cy="163.847" r="8.697"/>
	
		<line fill="none" stroke="#000000" stroke-width="6.1282" stroke-miterlimit="10" x1="253.697" y1="214.297" x2="240.203" y2="145.972"/>
	
		<line fill="none" stroke="#000000" stroke-width="5" stroke-miterlimit="10" x1="233.495" y1="145.972" x2="246.796" y2="145.972"/>
	<line fill="none" stroke="#000000" stroke-width="5" stroke-miterlimit="10" x1="246.988" y1="214.297" x2="260.29" y2="214.297"/>
</g>
<g>
	<path d="M22.088,24.486c-0.28,4.677-2.604,7.014-6.972,7.014H8.103c-1.904,0-3.549-0.686-4.935-2.058
		c-1.386-1.372-2.079-3.024-2.079-4.956V7.014c0-1.904,0.679-3.549,2.037-4.935C4.483,0.693,6.142,0,8.103,0h7.014
		c4.396,0,6.72,2.338,6.972,7.014h-3.486c-0.28-2.352-1.442-3.528-3.486-3.528h-3.528c-0.952,0-1.771,0.343-2.457,1.029
		C8.445,5.202,8.103,6.034,8.103,7.014v17.472c0,0.952,0.343,1.779,1.029,2.478c0.686,0.7,1.505,1.05,2.457,1.05h3.528
		c2.072,0,3.234-1.176,3.486-3.528H22.088z"/>
	<path d="M39.519,17.514v-3.528c0-0.951-0.343-1.771-1.029-2.457C37.803,10.843,36.97,10.5,35.99,10.5h-3.486
		c-2.072,0-3.234,1.162-3.486,3.486H25.49c0.56-4.647,2.898-6.972,7.014-6.972h7.014c1.904,0,3.542,0.686,4.914,2.058
		c1.372,1.373,2.058,3.01,2.058,4.914V31.5h-6.972v-3.486c-0.28,2.324-1.457,3.486-3.528,3.486h-3.486
		c-1.904,0-3.549-0.686-4.935-2.058c-1.386-1.372-2.079-3.024-2.079-4.956c0-1.904,0.693-3.542,2.079-4.914
		c1.386-1.372,3.031-2.058,4.935-2.058H39.519z M39.519,21H35.99c-0.952,0-1.771,0.343-2.457,1.029
		c-0.686,0.687-1.029,1.506-1.029,2.457c0,0.952,0.343,1.779,1.029,2.478c0.686,0.7,1.505,1.05,2.457,1.05
		c0.98,0,1.812-0.35,2.499-1.05c0.686-0.699,1.029-1.526,1.029-2.478V21z"/>
	<path d="M51.488,7.014h7.014V10.5c0-1.176,0.294-2.051,0.882-2.625c0.588-0.574,1.456-0.861,2.604-0.861h3.528
		c1.904,0,3.542,0.686,4.914,2.058c1.372,1.373,2.058,3.01,2.058,4.914v10.5c0,1.932-0.686,3.584-2.058,4.956
		c-1.373,1.373-3.01,2.058-4.914,2.058h-7.014v7.014h-7.014V7.014z M58.502,28.014h3.486c0.98,0,1.812-0.343,2.499-1.029
		c0.686-0.686,1.029-1.519,1.029-2.499v-10.5c0-0.951-0.343-1.771-1.029-2.457C63.8,10.843,62.968,10.5,61.988,10.5
		c-0.952,0-1.771,0.343-2.457,1.029c-0.686,0.687-1.029,1.506-1.029,2.457V28.014z"/>
	<path d="M77.149,3.486V0h7.014v3.486H77.149z M77.149,31.5V7.014h7.014V31.5H77.149z"/>
	<path d="M91.135,0h6.972v7.014h3.528V10.5h-3.528v13.986c0,1.148,0.378,2.023,1.134,2.625c0.756,0.603,1.442,0.903,2.058,0.903
		h0.336V31.5h-3.528c-1.904,0-3.542-0.686-4.914-2.058c-1.372-1.372-2.058-3.024-2.058-4.956V10.5h-3.528V7.014h3.528V0z"/>
	<path d="M118.939,17.514v-3.528c0-0.951-0.343-1.771-1.029-2.457c-0.687-0.686-1.519-1.029-2.499-1.029h-3.486
		c-2.072,0-3.234,1.162-3.486,3.486h-3.528c0.56-4.647,2.898-6.972,7.014-6.972h7.014c1.904,0,3.542,0.686,4.914,2.058
		c1.372,1.373,2.058,3.01,2.058,4.914V31.5h-6.972v-3.486c-0.28,2.324-1.457,3.486-3.528,3.486h-3.486
		c-1.904,0-3.549-0.686-4.935-2.058c-1.386-1.372-2.079-3.024-2.079-4.956c0-1.904,0.693-3.542,2.079-4.914
		c1.386-1.372,3.031-2.058,4.935-2.058H118.939z M118.939,21h-3.528c-0.952,0-1.771,0.343-2.457,1.029
		c-0.686,0.687-1.029,1.506-1.029,2.457c0,0.952,0.343,1.779,1.029,2.478c0.686,0.7,1.505,1.05,2.457,1.05
		c0.98,0,1.812-0.35,2.499-1.05c0.686-0.699,1.029-1.526,1.029-2.478V21z"/>
	<path d="M132.001,31.5V0h7.014v31.5H132.001z"/>
	<path d="M0,65.5V43.838h9.646c1.309,0,2.436,0.477,3.379,1.43c0.943,0.953,1.415,2.085,1.415,3.394v2.397
		c0,1.31-0.472,2.441-1.415,3.394c-0.944,0.953-2.07,1.43-3.379,1.43H4.823V65.5H0z M4.823,53.456H7.22
		c0.674,0,1.247-0.236,1.719-0.708c0.472-0.472,0.708-1.035,0.708-1.69v-2.397c0-0.674-0.236-1.247-0.708-1.719
		c-0.472-0.472-1.045-0.708-1.719-0.708H4.823V53.456z"/>
	<path d="M26.081,55.882v-2.426c0-0.654-0.236-1.218-0.708-1.689c-0.472-0.472-1.045-0.708-1.719-0.708h-2.397
		c-1.425,0-2.224,0.799-2.397,2.397h-2.426c0.385-3.196,1.993-4.794,4.823-4.794h4.823c1.309,0,2.436,0.472,3.379,1.415
		c0.943,0.944,1.415,2.07,1.415,3.379V65.5h-4.794v-2.397c-0.193,1.599-1.001,2.397-2.426,2.397h-2.397
		c-1.31,0-2.44-0.472-3.394-1.415s-1.43-2.08-1.43-3.408c0-1.31,0.477-2.436,1.43-3.379c0.953-0.943,2.084-1.415,3.394-1.415H26.081
		z M26.081,58.279h-2.426c-0.655,0-1.218,0.236-1.689,0.708c-0.472,0.472-0.708,1.036-0.708,1.69c0,0.655,0.235,1.223,0.708,1.704
		c0.472,0.481,1.035,0.722,1.689,0.722c0.674,0,1.247-0.24,1.719-0.722c0.472-0.481,0.708-1.049,0.708-1.704V58.279z"/>
	<path d="M35.842,43.838h4.794v4.824h2.426v2.397h-2.426v9.618c0,0.79,0.26,1.391,0.78,1.805c0.52,0.414,0.992,0.621,1.416,0.621
		h0.231V65.5h-2.426c-1.31,0-2.436-0.472-3.379-1.415c-0.944-0.943-1.416-2.08-1.416-3.408v-9.618h-2.426v-2.397h2.426V43.838z"/>
	<path d="M46.645,65.5V43.838h4.823v7.221c0.096-0.809,0.347-1.41,0.751-1.805c0.404-0.394,0.953-0.592,1.646-0.592h2.426
		c1.309,0,2.436,0.472,3.379,1.415c0.943,0.944,1.415,2.07,1.415,3.379V65.5h-4.794V53.456c0-0.654-0.236-1.218-0.708-1.689
		c-0.472-0.472-1.045-0.708-1.719-0.708c-0.655,0-1.218,0.236-1.689,0.708c-0.472,0.472-0.708,1.035-0.708,1.689V65.5H46.645z"/>
	<path d="M65.909,48.662h4.823v14.441h2.397c0.674,0,1.247-0.24,1.719-0.722c0.472-0.481,0.708-1.049,0.708-1.704V48.662h4.794
		v14.441h2.426c0.654,0,1.218-0.24,1.689-0.722s0.708-1.049,0.708-1.704V48.662h4.823v8.607c0,2.253-0.804,4.188-2.412,5.805
		c-1.608,1.618-3.548,2.426-5.82,2.426h-6.21v-0.751c-0.924,0.501-2.061,0.751-3.408,0.751h-6.238V48.662z"/>
	<path d="M102.474,55.882v-2.426c0-0.654-0.236-1.218-0.708-1.689c-0.472-0.472-1.045-0.708-1.719-0.708h-2.397
		c-1.425,0-2.224,0.799-2.397,2.397h-2.426c0.385-3.196,1.993-4.794,4.823-4.794h4.823c1.309,0,2.436,0.472,3.379,1.415
		c0.943,0.944,1.415,2.07,1.415,3.379V65.5h-4.794v-2.397c-0.193,1.599-1.001,2.397-2.426,2.397h-2.397
		c-1.31,0-2.44-0.472-3.394-1.415s-1.43-2.08-1.43-3.408c0-1.31,0.477-2.436,1.43-3.379c0.953-0.943,2.084-1.415,3.394-1.415
		H102.474z M102.474,58.279h-2.426c-0.655,0-1.218,0.236-1.689,0.708c-0.472,0.472-0.708,1.036-0.708,1.69
		c0,0.655,0.235,1.223,0.708,1.704c0.472,0.481,1.035,0.722,1.689,0.722c0.674,0,1.247-0.24,1.719-0.722
		c0.472-0.481,0.708-1.049,0.708-1.704V58.279z"/>
	<path d="M114.518,67.897c0.116,1.617,0.915,2.426,2.397,2.426h2.397c0.674,0,1.247-0.236,1.719-0.708
		c0.472-0.472,0.708-1.045,0.708-1.718v-4.795c-0.193,1.599-1.001,2.397-2.426,2.397h-2.397c-1.31,0-2.44-0.472-3.394-1.415
		s-1.43-2.08-1.43-3.408V48.662h4.823v12.015c0,0.655,0.235,1.223,0.708,1.704c0.472,0.481,1.035,0.722,1.689,0.722
		c0.674,0,1.247-0.24,1.719-0.722c0.472-0.481,0.708-1.049,0.708-1.704V48.662h4.794v19.236c0,1.309-0.472,2.44-1.415,3.394
		c-0.944,0.953-2.07,1.43-3.379,1.43h-4.823c-2.831,0-4.438-1.608-4.823-4.823H114.518z"/>
	<path d="M142.13,53.456h-2.397c-0.212-1.598-0.973-2.397-2.282-2.397c-0.848,0-1.483,0.169-1.906,0.505
		c-0.424,0.337-0.635,0.833-0.635,1.488c0,0.693,1.165,1.666,3.495,2.917c1.906,1.021,3.004,1.868,3.292,2.542
		c0.289,0.674,0.434,1.396,0.434,2.167c0,1.329-0.472,2.465-1.416,3.408s-2.08,1.415-3.408,1.415h-2.397
		c-3.216,0-4.823-1.607-4.823-4.823h2.426c0.192,1.617,0.943,2.426,2.253,2.426c0.867,0,1.511-0.168,1.935-0.505
		c0.423-0.336,0.636-0.842,0.636-1.516c0-0.674-1.166-1.636-3.495-2.888c-1.906-1.021-3.009-1.868-3.307-2.542
		c-0.298-0.674-0.447-1.396-0.447-2.166c0-1.329,0.477-2.464,1.43-3.408c0.953-0.943,2.084-1.415,3.394-1.415h2.397
		C140.329,48.662,141.937,50.26,142.13,53.456z"/>
</g>
</svg>
